<svg width="101" height="102" viewBox="0 0 101 102" fill="none" xmlns="http://www.w3.org/2000/svg"><path d="m100.341 54.14-3.546-7.766a7.294 7.294 0 0 1-.585-4.067l1.215-8.451a7.294 7.294 0 0 0-3.275-7.173l-7.18-4.616a7.293 7.293 0 0 1-2.691-3.106l-3.546-7.766A7.291 7.291 0 0 0 74.1 6.93h-8.535a7.29 7.29 0 0 1-3.942-1.157l-7.181-4.616a7.29 7.29 0 0 0-7.884 0l-7.18 4.616a7.29 7.29 0 0 1-3.943 1.157H26.9a7.291 7.291 0 0 0-6.632 4.264l-3.546 7.766a7.292 7.292 0 0 1-2.69 3.106L6.85 26.683a7.294 7.294 0 0 0-3.275 7.173l1.215 8.45a7.295 7.295 0 0 1-.585 4.068L.659 54.141a7.294 7.294 0 0 0 1.122 7.805l5.59 6.452a7.294 7.294 0 0 1 1.706 3.739l1.215 8.45a7.293 7.293 0 0 0 5.163 5.96l8.19 2.405a7.29 7.29 0 0 1 3.456 2.222l5.59 6.453a7.29 7.29 0 0 0 7.565 2.221l8.19-2.405a7.29 7.29 0 0 1 4.108 0l8.19 2.405a7.29 7.29 0 0 0 7.565-2.221l5.59-6.453a7.29 7.29 0 0 1 3.456-2.222l8.19-2.405a7.293 7.293 0 0 0 5.163-5.96l1.214-8.45a7.295 7.295 0 0 1 1.707-3.739l5.59-6.452a7.294 7.294 0 0 0 1.122-7.805zM50.5 91.733c-23.003 0-41.65-18.652-41.65-41.66 0-23.008 18.648-41.66 41.65-41.66s41.65 18.652 41.65 41.66c0 23.008-18.648 41.66-41.65 41.66z" fill="#fff"/><path d="M50.493 91.772c22.085 0 39.988-17.903 39.988-39.988S72.578 11.796 50.493 11.796c-22.084 0-39.988 17.903-39.988 39.988S28.41 91.772 50.493 91.772z" fill="#FF0069"/><path d="M55.773 63.665h-2.33l-.401 1.138h-.954l1.995-5.576h1.058l1.994 5.576h-.961l-.4-1.138zm-.256-.745-.905-2.588-.913 2.588h1.818zM50.737 59.235v5.568h-.913v-5.568h.913zm.368-1.194-1.77.873v-.673l1.77-.977v.777zM45.481 59.235c.593 0 1.111.114 1.555.344.448.224.793.55 1.033.977.246.422.369.916.369 1.483 0 .566-.123 1.057-.369 1.474-.24.416-.585.737-1.033.961-.444.22-.962.329-1.555.329h-1.818v-5.568h1.818zm0 4.823c.652 0 1.151-.177 1.498-.53.348-.352.521-.848.521-1.49 0-.646-.173-1.15-.52-1.513-.348-.364-.847-.545-1.499-.545h-.905v4.078h.905z" fill="#fff"/><path d="m96.69 55.554-3.286-7.197a6.758 6.758 0 0 1-.542-3.77l1.126-7.83a6.758 6.758 0 0 0-3.036-6.648l-6.656-4.277a6.758 6.758 0 0 1-2.493-2.878l-3.287-7.197a6.759 6.759 0 0 0-6.148-3.95h-7.911a6.758 6.758 0 0 1-3.654-1.073l-6.656-4.278a6.758 6.758 0 0 0-7.307 0l-6.656 4.278a6.758 6.758 0 0 1-3.654 1.072h-7.912a6.758 6.758 0 0 0-6.147 3.951l-3.287 7.197a6.758 6.758 0 0 1-2.494 2.878l-6.656 4.277A6.758 6.758 0 0 0 7 36.757l1.126 7.83a6.758 6.758 0 0 1-.542 3.77l-3.287 7.197a6.758 6.758 0 0 0 1.04 7.233l5.181 5.98A6.758 6.758 0 0 1 12.1 72.23l1.126 7.832a6.758 6.758 0 0 0 4.785 5.522l7.592 2.23a6.758 6.758 0 0 1 3.203 2.058l5.181 5.98a6.758 6.758 0 0 0 7.012 2.058l7.591-2.229a6.759 6.759 0 0 1 3.808 0l7.592 2.23A6.758 6.758 0 0 0 67 95.85l5.181-5.979a6.757 6.757 0 0 1 3.204-2.058l7.591-2.23a6.758 6.758 0 0 0 4.786-5.522l1.126-7.832a6.758 6.758 0 0 1 1.582-3.464l5.18-5.979a6.758 6.758 0 0 0 1.04-7.233zM50.494 90.389c-21.32 0-38.605-17.284-38.605-38.605 0-21.321 17.284-38.605 38.605-38.605 21.321 0 38.605 17.284 38.605 38.605 0 21.32-17.284 38.605-38.605 38.605z" fill="#fff"/><path d="M98.269 55.683 94.87 48.24a6.99 6.99 0 0 1-.56-3.898l1.164-8.099a6.99 6.99 0 0 0-3.14-6.874l-6.883-4.424a6.99 6.99 0 0 1-2.579-2.976l-3.398-7.443a6.99 6.99 0 0 0-6.358-4.085h-8.182a6.99 6.99 0 0 1-3.779-1.11l-6.883-4.423a6.99 6.99 0 0 0-7.557 0L39.832 9.33a6.99 6.99 0 0 1-3.78 1.11h-8.181a6.99 6.99 0 0 0-6.358 4.085l-3.399 7.443a6.99 6.99 0 0 1-2.579 2.976L8.652 29.37a6.989 6.989 0 0 0-3.14 6.874l1.165 8.1a6.99 6.99 0 0 1-.56 3.897l-3.399 7.443a6.99 6.99 0 0 0 1.075 7.48l5.359 6.184a6.99 6.99 0 0 1 1.636 3.582l1.164 8.099a6.99 6.99 0 0 0 4.949 5.711l7.85 2.305a6.99 6.99 0 0 1 3.313 2.13l5.359 6.183a6.99 6.99 0 0 0 7.25 2.13l7.851-2.306a6.99 6.99 0 0 1 3.938 0l7.851 2.305a6.99 6.99 0 0 0 7.251-2.129l5.358-6.183a6.99 6.99 0 0 1 3.313-2.13l7.85-2.305a6.99 6.99 0 0 0 4.95-5.711l1.164-8.099a6.99 6.99 0 0 1 1.636-3.582l5.358-6.184a6.989 6.989 0 0 0 1.076-7.48zM50.493 91.708c-22.049 0-39.923-17.875-39.923-39.924 0-22.05 17.874-39.924 39.923-39.924 22.05 0 39.924 17.875 39.924 39.924 0 22.05-17.874 39.924-39.924 39.924z" fill="#FF0069"/><path d="m97.57 55.626-3.35-7.334a6.888 6.888 0 0 1-.552-3.841l1.148-7.98a6.887 6.887 0 0 0-3.094-6.774l-6.782-4.359a6.887 6.887 0 0 1-2.541-2.933l-3.35-7.333a6.887 6.887 0 0 0-6.264-4.026h-8.063c-1.32 0-2.612-.38-3.723-1.094l-6.782-4.358a6.887 6.887 0 0 0-7.447 0l-6.783 4.358a6.887 6.887 0 0 1-3.723 1.094h-8.062a6.887 6.887 0 0 0-6.265 4.026l-3.349 7.333a6.888 6.888 0 0 1-2.541 2.933l-6.783 4.359a6.887 6.887 0 0 0-3.093 6.774l1.147 7.98a6.887 6.887 0 0 1-.552 3.841l-3.35 7.334a6.887 6.887 0 0 0 1.06 7.37l5.28 6.094a6.887 6.887 0 0 1 1.612 3.53l1.148 7.98a6.887 6.887 0 0 0 4.876 5.628l7.736 2.271c1.267.372 2.4 1.1 3.264 2.098l5.28 6.093a6.887 6.887 0 0 0 7.145 2.098l7.736-2.271a6.886 6.886 0 0 1 3.88 0l7.736 2.271c2.587.76 5.38-.06 7.145-2.098l5.28-6.093a6.887 6.887 0 0 1 3.265-2.098l7.735-2.271a6.887 6.887 0 0 0 4.877-5.628l1.147-7.98a6.887 6.887 0 0 1 1.612-3.53l5.28-6.093a6.886 6.886 0 0 0 1.06-7.371zM50.493 91.123c-21.726 0-39.34-17.613-39.34-39.34 0-21.726 17.614-39.339 39.34-39.339 21.727 0 39.34 17.613 39.34 39.34 0 21.726-17.613 39.34-39.34 39.34z" fill="#FF0069"/><path d="M50.493 15.182c-20.214 0-36.601 16.387-36.601 36.602 0 20.215 16.387 36.602 36.602 36.602 20.214 0 36.601-16.388 36.601-36.602 0-20.214-16.387-36.602-36.602-36.602zm0 59.31c-12.541 0-22.708-10.166-22.708-22.708 0-12.542 10.167-22.709 22.708-22.709 12.542 0 22.709 10.167 22.709 22.709S63.035 74.493 50.493 74.493z" fill="#fff"/><path d="M24.595 65.526a29.882 29.882 0 0 1-3.946-14.26 29.826 29.826 0 0 1 3.82-15.227l.822.463a28.883 28.883 0 0 0-3.7 14.745 28.935 28.935 0 0 0 3.821 13.81l-.817.469zM76.458 65.526l-.82-.466a28.938 28.938 0 0 0 3.76-13.827 28.882 28.882 0 0 0-3.765-14.727l.82-.467a29.826 29.826 0 0 1 3.888 15.209 29.882 29.882 0 0 1-3.883 14.278z" fill="#FF0069"/><path d="M41.743 52.117v-1.359h2.48v1.479c0 1.192.525 1.645 1.359 1.645s1.359-.406 1.359-1.884V50.64c0-1.55-.525-2.122-1.717-2.122h-.882v-2.384h.954c.977 0 1.573-.43 1.573-1.764v-1.216c0-1.192-.548-1.67-1.31-1.67-.764 0-1.264.454-1.264 1.55v1.097h-2.48v-.882c0-2.67 1.335-4.148 3.839-4.148 2.503 0 3.838 1.454 3.838 4.124v.596c0 1.789-.572 2.885-1.86 3.362v.048c1.407.524 1.932 1.74 1.932 3.433v1.478c0 2.67-1.336 4.125-3.91 4.125-2.575 0-3.91-1.478-3.91-4.149zM51.28 52.07v-8.774c0-2.67 1.407-4.196 3.982-4.196s3.981 1.526 3.981 4.196v8.774c0 2.67-1.406 4.196-3.981 4.196S51.28 54.74 51.28 52.07zm5.34.167v-9.108c0-1.192-.524-1.645-1.358-1.645-.835 0-1.36.453-1.36 1.645v9.108c0 1.192.525 1.645 1.36 1.645.834 0 1.359-.453 1.359-1.645z" fill="#fff"/><path d="M69.522 33.683a2.959 2.959 0 0 1-.707-1.327 2.803 2.803 0 0 1 .053-1.466c.156-.488.438-.917.845-1.287a2.88 2.88 0 0 1 1.356-.712c.5-.1.988-.071 1.465.088.48.163.897.44 1.253.832.355.391.59.832.702 1.321.116.493.096.98-.06 1.46a2.878 2.878 0 0 1-.838 1.282 2.92 2.92 0 0 1-1.362.717 2.743 2.743 0 0 1-1.46-.082 2.913 2.913 0 0 1-1.247-.826zm.925-.84c.302.332.653.496 1.054.493.405 0 .789-.164 1.153-.494.368-.334.569-.7.603-1.1.042-.399-.088-.764-.39-1.096-.305-.337-.658-.507-1.058-.51-.397-.001-.782.168-1.153.505-.368.334-.573.7-.615 1.1-.034.398.101.766.407 1.102zM65.27 29.825a2.893 2.893 0 0 1-.783-.806 1.83 1.83 0 0 1-.294-.939c-.004-.324.096-.64.302-.946l1.186.848c-.103.182-.138.354-.103.517a.707.707 0 0 0 .297.41c.166.118.322.174.47.169a.48.48 0 0 0 .373-.217.454.454 0 0 0 .082-.364 1.07 1.07 0 0 0-.15-.383 5.211 5.211 0 0 0-.352-.498 6.32 6.32 0 0 1-.528-.791 1.644 1.644 0 0 1-.193-.75c-.008-.274.091-.554.296-.841.304-.426.696-.648 1.176-.667.482-.022.971.143 1.466.497.504.36.824.773.958 1.237.138.46.064.912-.222 1.357l-1.206-.861a.566.566 0 0 0 .084-.462.694.694 0 0 0-.291-.406.578.578 0 0 0-.405-.122c-.132.01-.247.083-.343.218-.106.148-.118.313-.038.495.08.181.233.426.46.733.225.31.395.577.512.799.122.225.188.472.198.742.011.27-.082.542-.277.816a1.6 1.6 0 0 1-.71.566c-.283.12-.595.152-.937.098-.342-.054-.685-.204-1.028-.449zM61.725 26.413l1.62.772-.455.954-2.857-1.36 2.42-5.078 1.236.59-1.964 4.122zM56.313 25.79a2.958 2.958 0 0 1-1.322-.716 2.801 2.801 0 0 1-.765-1.253 2.922 2.922 0 0 1-.005-1.539 2.88 2.88 0 0 1 .738-1.341c.361-.36.785-.605 1.27-.735.49-.13.991-.129 1.504.002.512.13.95.368 1.314.714.37.348.621.764.757 1.25.14.488.143.999.007 1.532a2.921 2.921 0 0 1-.74 1.35 2.743 2.743 0 0 1-1.262.737c-.485.13-.984.13-1.496 0zm.308-1.211c.435.11.818.054 1.15-.17.339-.223.568-.572.69-1.049.122-.481.087-.898-.105-1.25-.185-.355-.495-.588-.93-.699-.44-.112-.828-.059-1.164.159-.331.218-.559.571-.682 1.058-.123.481-.092.9.093 1.255.192.352.508.584.948.696zM51.712 22.045c.325.075.583.243.776.503.194.255.287.545.281.87-.008.47-.18.841-.517 1.113-.33.266-.79.394-1.377.384l-2.62-.048.103-5.623 2.53.046c.572.01 1.016.15 1.331.417.322.267.478.625.47 1.074-.006.33-.1.604-.28.82a1.325 1.325 0 0 1-.697.444zm-2.026-.501.897.016c.225.004.396-.041.516-.135.124-.1.188-.245.192-.437.003-.192-.055-.34-.176-.444-.116-.104-.286-.157-.51-.162l-.897-.016-.022 1.178zm.969 2.26c.23.005.407-.043.531-.142.13-.104.197-.255.2-.453a.574.574 0 0 0-.191-.468c-.126-.115-.304-.174-.534-.178l-.993-.018-.023 1.241 1.01.019zM45.78 19.547l1.298 5.473-1.333.316-.778-3.282-.446 3.572-1.076.255-2.012-2.997.78 3.29-1.332.316-1.298-5.473 1.574-.373 2.435 3.424.621-4.149 1.567-.372zM35.953 23.77l.51 1.016 1.64-.822.474.945-1.64.823.554 1.102 1.855-.93.492.981-3.08 1.545-2.521-5.027 3.079-1.545.492.981-1.855.93zM31.453 26.614l.676.915 1.476-1.089.628.851-1.476 1.09.732.992 1.67-1.232.651.884-2.772 2.045-3.338-4.526 2.772-2.046.651.884-1.67 1.232zM31.205 32.89l-2.348-.602-.225.24 1.547 1.453-.938.998-4.098-3.851 1.574-1.676c.304-.323.618-.544.943-.664a1.59 1.59 0 0 1 .95-.075c.3.07.572.219.813.446.273.256.443.562.51.919.072.353.011.721-.18 1.105l2.511.58-1.059 1.126zm-3.28-1.027.582-.619c.172-.182.255-.36.25-.534-.002-.178-.084-.344-.248-.497-.155-.146-.322-.215-.5-.206-.173.006-.346.1-.518.283l-.581.619 1.016.954zM75.006 72.536a2.588 2.588 0 0 1-1.04.805c-.406.169-.83.225-1.273.169a2.557 2.557 0 0 1-1.234-.54 2.518 2.518 0 0 1-.813-1.065 2.451 2.451 0 0 1-.14-1.276c.07-.438.248-.839.534-1.203.285-.364.631-.63 1.037-.8a2.336 2.336 0 0 1 1.268-.163c.44.06.85.238 1.228.535.38.297.652.654.819 1.07a2.4 2.4 0 0 1 .144 1.27 2.549 2.549 0 0 1-.53 1.198zm-.86-.675c.242-.309.332-.636.27-.981-.058-.35-.257-.656-.595-.922-.342-.268-.688-.388-1.037-.359-.35.023-.647.188-.889.497-.245.313-.34.642-.285.989.058.342.26.649.606.92.342.268.688.39 1.038.369.35-.03.647-.2.892-.513zM67.276 73.4c.394-.339.805-.556 1.233-.653a2.175 2.175 0 0 1 1.247.074c.403.14.764.394 1.08.762.314.365.512.76.593 1.183.084.42.044.837-.12 1.249-.16.408-.434.78-.824 1.116l-1.398 1.202-3.208-3.731 1.397-1.203zm2.474 2.994c.344-.295.53-.62.56-.972.03-.352-.103-.7-.398-1.044-.296-.343-.621-.529-.977-.555-.356-.027-.706.107-1.05.403l-.43.37 1.865 2.168.43-.37zM66.12 79.16l-1.6.9.17.902-1.094.616-.863-5.161 1.209-.681 3.966 3.414-1.105.622-.683-.613zm-.723-.656-1.416-1.27.36 1.866 1.056-.596zM60.034 81.811l2.006-.676.313.93-3.295 1.11-.29-.863 1.025-3.542-1.993.672-.313-.93 3.295-1.11.29.863-1.038 3.546zM56.611 78.716l.987 4.821-1.174.24-.987-4.82 1.175-.24zM54.719 79.05l.08.958-1.3.109.33 3.947-1.194.1-.33-3.948-1.3.11-.08-.958 3.794-.317zM49.861 84.192l-1.192-.127-1.673-3.23-.32 3.02-1.192-.127.518-4.894 1.192.126 1.673 3.244.321-3.032 1.192.126-.519 4.894zM42.845 82.123l-1.751-.555-.543.74-1.197-.38 3.185-4.153 1.323.42.21 5.229-1.21-.384-.017-.917zm-.015-.975-.037-1.902-1.119 1.535 1.156.367zM37.023 80.741l-.016-2.12-.253-.137-.884 1.634-1.054-.57 2.341-4.33 1.77.958c.34.185.598.401.772.65.178.25.27.512.276.786.008.27-.057.532-.195.787-.155.288-.376.5-.663.638-.283.139-.608.17-.975.093l.071 2.255-1.19-.644zm.134-3.004.654.354c.193.105.363.135.508.092.15-.041.272-.148.365-.321a.583.583 0 0 0 .062-.468c-.043-.146-.161-.271-.355-.376l-.653-.353-.58 1.072zM32.984 77.092l-1.422-1.162-.778.488-.972-.794 4.491-2.686 1.076.878-1.733 4.938-.983-.803.321-.86zm.347-.912.667-1.781-1.607 1.014.94.767zM30.68 71.488a.872.872 0 0 0 .042-.534 1.202 1.202 0 0 0-.266-.534c-.246-.3-.542-.459-.89-.476-.342-.02-.678.104-1.007.373-.35.288-.548.607-.593.958-.038.352.08.694.352 1.026.187.228.402.372.645.432.246.064.507.044.783-.062l-.965-1.176.683-.56 1.654 2.016-.862.707c-.287.121-.599.18-.934.177-.332 0-.663-.076-.993-.228a2.502 2.502 0 0 1-.887-.705 2.665 2.665 0 0 1-.583-1.208 2.328 2.328 0 0 1 .123-1.253c.16-.403.427-.758.803-1.067a2.626 2.626 0 0 1 1.203-.578c.433-.077.85-.036 1.253.123a2.58 2.58 0 0 1 1.072.799c.373.455.577.928.611 1.42.038.495-.097.953-.404 1.375l-.84-1.025z" fill="#FF0069"/></svg>