<svg width="101" height="102" viewBox="0 0 101 102" fill="none" xmlns="http://www.w3.org/2000/svg"><path d="m100.341 54.14-3.546-7.766a7.294 7.294 0 0 1-.585-4.067l1.215-8.451a7.294 7.294 0 0 0-3.275-7.173l-7.18-4.616a7.293 7.293 0 0 1-2.691-3.106l-3.546-7.766A7.291 7.291 0 0 0 74.1 6.93h-8.535a7.29 7.29 0 0 1-3.942-1.157l-7.181-4.616a7.29 7.29 0 0 0-7.884 0l-7.18 4.616a7.29 7.29 0 0 1-3.943 1.157H26.9a7.291 7.291 0 0 0-6.632 4.264l-3.546 7.766a7.292 7.292 0 0 1-2.69 3.106L6.85 26.683a7.294 7.294 0 0 0-3.275 7.173l1.215 8.45a7.295 7.295 0 0 1-.585 4.068L.659 54.141a7.294 7.294 0 0 0 1.122 7.805l5.59 6.452a7.294 7.294 0 0 1 1.706 3.739l1.215 8.45a7.293 7.293 0 0 0 5.163 5.96l8.19 2.405a7.29 7.29 0 0 1 3.456 2.222l5.59 6.453a7.29 7.29 0 0 0 7.565 2.221l8.19-2.405a7.29 7.29 0 0 1 4.108 0l8.19 2.405a7.29 7.29 0 0 0 7.565-2.221l5.59-6.453a7.29 7.29 0 0 1 3.456-2.222l8.19-2.405a7.293 7.293 0 0 0 5.163-5.96l1.214-8.45a7.295 7.295 0 0 1 1.707-3.739l5.59-6.452a7.294 7.294 0 0 0 1.122-7.805zM50.5 91.733c-23.003 0-41.65-18.652-41.65-41.66 0-23.008 18.648-41.66 41.65-41.66s41.65 18.652 41.65 41.66c0 23.008-18.648 41.66-41.65 41.66z" fill="#fff"/><path d="M50.493 91.772c22.085 0 39.988-17.903 39.988-39.988S72.578 11.796 50.493 11.796c-22.084 0-39.988 17.903-39.988 39.988S28.41 91.772 50.493 91.772z" fill="#FF0069"/><path d="m62.782 59.235-1.843 3.549v2.019h-.913v-2.02l-1.851-3.548h1.017l1.29 2.732 1.29-2.732h1.01zM55.946 63.665h-2.332l-.4 1.138h-.954l1.995-5.576h1.058l1.994 5.576h-.96l-.401-1.138zm-.257-.745-.905-2.588-.913 2.588h1.818zm-.08-4.679v.673l-1.77-.873v-.777l1.77.977zM49.941 60.837a1.448 1.448 0 0 0-.6-.625 1.783 1.783 0 0 0-.89-.216c-.368 0-.697.082-.985.248-.288.166-.516.4-.681.705-.16.305-.24.657-.24 1.058 0 .4.08.755.24 1.065.166.305.393.54.68.705.29.166.618.248.986.248.497 0 .9-.138 1.21-.416.31-.278.5-.654.569-1.13h-2.091v-.729h3.068v.713c-.059.433-.213.83-.464 1.194a2.73 2.73 0 0 1-.97.873c-.395.214-.836.32-1.322.32-.523 0-1.001-.12-1.434-.36a2.777 2.777 0 0 1-1.033-1.017 2.866 2.866 0 0 1-.377-1.466c0-.545.126-1.034.377-1.466.256-.433.6-.77 1.033-1.01a2.883 2.883 0 0 1 1.434-.368c.593 0 1.12.146 1.579.44.464.289.8.7 1.009 1.234h-1.098zM44.232 64.803h-.914l-2.748-4.158v4.158h-.913v-5.576h.913l2.748 4.15v-4.15h.914v5.576z" fill="#fff"/><path d="m96.69 55.554-3.286-7.197a6.757 6.757 0 0 1-.542-3.77l1.126-7.83a6.759 6.759 0 0 0-3.036-6.648l-6.656-4.277a6.758 6.758 0 0 1-2.493-2.878l-3.287-7.197a6.759 6.759 0 0 0-6.148-3.95h-7.911a6.759 6.759 0 0 1-3.654-1.073l-6.656-4.278a6.758 6.758 0 0 0-7.307 0l-6.656 4.278a6.758 6.758 0 0 1-3.654 1.072h-7.912a6.758 6.758 0 0 0-6.147 3.951l-3.287 7.197a6.759 6.759 0 0 1-2.494 2.878l-6.656 4.277A6.758 6.758 0 0 0 7 36.757l1.126 7.83a6.758 6.758 0 0 1-.542 3.77l-3.287 7.197a6.758 6.758 0 0 0 1.04 7.233l5.181 5.98a6.758 6.758 0 0 1 1.582 3.463l1.126 7.832a6.758 6.758 0 0 0 4.785 5.522l7.592 2.23a6.758 6.758 0 0 1 3.203 2.058l5.181 5.98a6.758 6.758 0 0 0 7.012 2.058l7.591-2.229a6.758 6.758 0 0 1 3.808 0l7.592 2.23A6.758 6.758 0 0 0 67 95.85l5.181-5.979a6.758 6.758 0 0 1 3.204-2.058l7.591-2.23a6.758 6.758 0 0 0 4.786-5.522l1.126-7.832a6.758 6.758 0 0 1 1.582-3.464l5.18-5.979a6.758 6.758 0 0 0 1.04-7.233zM50.494 90.389c-21.32 0-38.605-17.284-38.605-38.605 0-21.321 17.284-38.605 38.605-38.605 21.321 0 38.605 17.284 38.605 38.605 0 21.32-17.284 38.605-38.605 38.605z" fill="#fff"/><path d="M98.269 55.683 94.87 48.24a6.99 6.99 0 0 1-.56-3.898l1.164-8.099a6.99 6.99 0 0 0-3.14-6.874l-6.883-4.424a6.99 6.99 0 0 1-2.579-2.976l-3.398-7.443a6.99 6.99 0 0 0-6.358-4.085h-8.182a6.99 6.99 0 0 1-3.779-1.11l-6.883-4.423a6.99 6.99 0 0 0-7.557 0L39.832 9.33a6.99 6.99 0 0 1-3.78 1.11h-8.181a6.99 6.99 0 0 0-6.358 4.085l-3.399 7.443a6.99 6.99 0 0 1-2.579 2.976L8.652 29.37a6.989 6.989 0 0 0-3.14 6.874l1.165 8.1a6.99 6.99 0 0 1-.56 3.897l-3.399 7.443a6.99 6.99 0 0 0 1.075 7.48l5.359 6.184a6.99 6.99 0 0 1 1.636 3.582l1.164 8.099a6.99 6.99 0 0 0 4.949 5.711l7.85 2.305a6.99 6.99 0 0 1 3.313 2.13l5.359 6.183a6.99 6.99 0 0 0 7.25 2.13l7.851-2.306a6.99 6.99 0 0 1 3.938 0l7.851 2.305a6.99 6.99 0 0 0 7.251-2.129l5.358-6.183a6.99 6.99 0 0 1 3.313-2.13l7.85-2.305a6.99 6.99 0 0 0 4.95-5.711l1.164-8.099a6.99 6.99 0 0 1 1.636-3.582l5.358-6.184a6.989 6.989 0 0 0 1.076-7.48zM50.493 91.708c-22.049 0-39.923-17.875-39.923-39.924 0-22.05 17.874-39.924 39.923-39.924 22.05 0 39.924 17.875 39.924 39.924 0 22.05-17.874 39.924-39.924 39.924z" fill="#FF0069"/><path d="m97.57 55.626-3.35-7.334a6.888 6.888 0 0 1-.552-3.841l1.148-7.98a6.887 6.887 0 0 0-3.094-6.774l-6.782-4.359a6.888 6.888 0 0 1-2.541-2.933l-3.35-7.333a6.887 6.887 0 0 0-6.264-4.026h-8.063c-1.32 0-2.612-.38-3.723-1.094l-6.782-4.358a6.887 6.887 0 0 0-7.447 0l-6.783 4.358a6.887 6.887 0 0 1-3.723 1.094h-8.062a6.887 6.887 0 0 0-6.265 4.026l-3.349 7.333a6.887 6.887 0 0 1-2.541 2.933l-6.783 4.359a6.887 6.887 0 0 0-3.093 6.774l1.147 7.98a6.887 6.887 0 0 1-.552 3.841l-3.35 7.334a6.887 6.887 0 0 0 1.06 7.37l5.28 6.094a6.887 6.887 0 0 1 1.612 3.53l1.148 7.98a6.887 6.887 0 0 0 4.876 5.628l7.736 2.271c1.267.372 2.4 1.1 3.264 2.098l5.28 6.093a6.887 6.887 0 0 0 7.145 2.098l7.736-2.271a6.886 6.886 0 0 1 3.88 0l7.736 2.271c2.587.76 5.38-.06 7.145-2.098l5.28-6.093a6.887 6.887 0 0 1 3.265-2.098l7.735-2.271a6.887 6.887 0 0 0 4.877-5.628l1.147-7.98a6.887 6.887 0 0 1 1.612-3.53l5.28-6.093a6.887 6.887 0 0 0 1.06-7.371zM50.493 91.123c-21.726 0-39.34-17.613-39.34-39.34 0-21.726 17.614-39.339 39.34-39.339 21.727 0 39.34 17.613 39.34 39.34 0 21.726-17.613 39.34-39.34 39.34z" fill="#FF0069"/><path d="M50.493 15.182c-20.214 0-36.601 16.387-36.601 36.602 0 20.215 16.387 36.602 36.602 36.602 20.214 0 36.601-16.388 36.601-36.602 0-20.214-16.387-36.602-36.602-36.602zm0 59.31c-12.541 0-22.708-10.166-22.708-22.708 0-12.542 10.167-22.709 22.708-22.709 12.542 0 22.709 10.167 22.709 22.709S63.035 74.493 50.493 74.493z" fill="#fff"/><path d="M24.595 67.529a29.882 29.882 0 0 1-3.946-14.26 29.826 29.826 0 0 1 3.82-15.227l.822.463a28.883 28.883 0 0 0-3.7 14.744 28.935 28.935 0 0 0 3.821 13.81l-.817.47zM76.458 67.529l-.82-.466a28.938 28.938 0 0 0 3.76-13.827 28.882 28.882 0 0 0-3.765-14.728l.82-.466A29.826 29.826 0 0 1 80.34 53.25a29.882 29.882 0 0 1-3.883 14.278z" fill="#FF0069"/><path d="M41.743 52.117v-1.359h2.48v1.479c0 1.192.525 1.645 1.359 1.645s1.359-.406 1.359-1.884V50.64c0-1.55-.525-2.122-1.717-2.122h-.882v-2.384h.954c.977 0 1.573-.43 1.573-1.764v-1.216c0-1.192-.548-1.67-1.31-1.67-.764 0-1.264.454-1.264 1.55v1.097h-2.48v-.882c0-2.67 1.335-4.148 3.839-4.148 2.503 0 3.838 1.454 3.838 4.124v.596c0 1.789-.572 2.885-1.86 3.362v.048c1.407.524 1.932 1.74 1.932 3.433v1.478c0 2.67-1.336 4.125-3.91 4.125-2.575 0-3.91-1.478-3.91-4.149zM51.28 52.07v-8.774c0-2.67 1.407-4.196 3.982-4.196s3.981 1.526 3.981 4.196v8.774c0 2.67-1.406 4.196-3.981 4.196S51.28 54.74 51.28 52.07zm5.34.167v-9.108c0-1.192-.524-1.645-1.358-1.645-.835 0-1.36.453-1.36 1.645v9.108c0 1.192.525 1.645 1.36 1.645.834 0 1.359-.453 1.359-1.645z" fill="#fff"/><path d="m71.54 36.886-1.029-1.147 1.183-4.525-2.905 2.607-1.03-1.147 4.71-4.226 1.029 1.147-1.196 4.537 2.918-2.619 1.03 1.147-4.71 4.226zM67.7 23.82c.149-.033.308-.075.476-.126.168-.05.338-.103.51-.158.175-.06.341-.119.5-.176l1.147.813c-.006.165-.009.34-.007.525l.027.538c.013.18.026.343.039.492l-.068.095-.588-.417a9.807 9.807 0 0 1-.183-.537 13.765 13.765 0 0 1-.153-.595 9.81 9.81 0 0 1-.62.048c-.196.007-.383.011-.56.011l-.588-.416.068-.096zm.191-.769a9.859 9.859 0 0 1-.194-.646 3.289 3.289 0 0 1-.096-.675l.052-.073.876.62a5.033 5.033 0 0 0-.059.565c.002.164.016.332.04.504l-.067.096-.552-.39zm-1.15 8.75-3.023-2.14 3.72-5.252 3.023 2.14-.646.913-1.912-1.355-.818 1.155 1.78 1.26-.646.913-1.78-1.26-.959 1.352 1.913 1.355-.652.92zM65.132 23.157l-2.816 5.666-1.38-.686 2.816-5.666 1.38.686zM61.84 21.701l-.362 1.18-1.603-.491-1.495 4.867-1.473-.452 1.495-4.868-1.602-.492.362-1.18L61.84 21.7zM52.137 25.929l-1.541.04-2.676-3.837.1 3.902-1.542.04-.161-6.326 1.54-.04 2.678 3.854-.1-3.919 1.54-.04.162 6.326zM43.303 25.702l-2.262.674-.044 1.18-1.546.46.386-6.717 1.71-.51 4.002 5.41-1.563.465-.683-.962zm-.72-1.027-1.413-1.996-.08 2.442 1.493-.446zm-1.297-5.294.304 1.019-2.341-.252L38.906 19l2.38.38zM36.147 30.126a3.326 3.326 0 0 1-1.61.523 3.152 3.152 0 0 1-1.613-.348 3.287 3.287 0 0 1-1.26-1.188 3.24 3.24 0 0 1-.521-1.642 3.152 3.152 0 0 1 .384-1.605c.275-.5.664-.908 1.168-1.225a3.277 3.277 0 0 1 1.601-.518 3.004 3.004 0 0 1 1.606.352c.507.264.925.657 1.255 1.181.33.524.505 1.074.527 1.65a3.086 3.086 0 0 1-.377 1.6c-.27.496-.657.903-1.16 1.22zm-.75-1.19c.428-.27.68-.626.754-1.07.08-.449-.027-.907-.322-1.375-.297-.473-.664-.767-1.1-.884-.433-.124-.863-.052-1.29.217-.432.272-.69.63-.773 1.072-.079.44.033.899.334 1.377.297.473.663.771 1.096.896.436.117.87.039 1.302-.233zM27.934 28.235l4.624 4.318-1.052 1.127-1.904-1.778-1.636 1.752 1.903 1.778-1.052 1.126-4.624-4.318 1.052-1.127 1.812 1.692 1.636-1.752-1.811-1.692 1.052-1.126zM70.12 78.3a3.327 3.327 0 0 1-1.551.672 3.152 3.152 0 0 1-1.64-.192 3.288 3.288 0 0 1-1.366-1.064 3.238 3.238 0 0 1-.676-1.584c-.067-.57.01-1.115.231-1.635a3.327 3.327 0 0 1 1.046-1.33 3.278 3.278 0 0 1 1.545-.668 3.003 3.003 0 0 1 1.632.199c.53.214.983.566 1.361 1.056.378.49.605 1.02.681 1.592a3.085 3.085 0 0 1-.223 1.629c-.222.52-.568.96-1.04 1.324zm-.858-1.114c.4-.309.616-.688.648-1.138.038-.453-.112-.899-.45-1.337-.341-.442-.734-.7-1.178-.775-.444-.083-.865.03-1.265.337-.405.312-.627.693-.668 1.142-.036.445.118.89.463 1.338.341.443.734.706 1.177.789.444.074.869-.044 1.273-.356zM64.775 81.62l-1.066-1.184-2.077.918.158 1.586-1.36.6-.543-6.825 1.55-.684 4.698 4.988-1.36.602zm-2.798-3.207c-.058-.073-.149-.18-.27-.324a66.802 66.802 0 0 1-.652-.826c.034.136.066.297.094.481a34.926 34.926 0 0 1 .169.96l.144 1.464 1.492-.66-.977-1.095zm-1.004-3.922c.09.204.105.4.045.591a.963.963 0 0 1-.371.5l.086.306-.684.303-.35-.546c.175-.11.29-.213.346-.31a.32.32 0 0 0 .02-.314c-.044-.099-.115-.153-.21-.163a.56.56 0 0 0-.302.054 1.325 1.325 0 0 0-.458.301l-.3-.676c.068-.056.164-.121.289-.196.122-.08.252-.15.389-.212.374-.165.687-.214.94-.149.252.066.439.236.56.511zM57.09 80.923c.374.015.695.145.964.391.267.24.432.54.495.902.09.52-.021.967-.335 1.339-.308.364-.788.603-1.44.716l-2.903.505-1.083-6.234 2.806-.487c.633-.11 1.153-.051 1.559.177.411.228.66.59.746 1.087.064.367.02.689-.134.966a1.49 1.49 0 0 1-.676.638zm-2.346-.123.995-.173c.249-.043.429-.129.54-.258.117-.136.157-.31.12-.524-.037-.213-.133-.364-.29-.453-.149-.09-.348-.113-.597-.07l-.994.173.226 1.305zm1.551 2.292c.255-.044.44-.134.557-.27.121-.143.163-.324.125-.544a.646.646 0 0 0-.311-.476c-.164-.1-.373-.127-.628-.083l-1.1.191.238 1.377 1.12-.195zM49.866 78.518l-1.15 6.222-1.515-.28.69-3.731-2.082 3.474-1.223-.226-.709-4-.691 3.74-1.516-.28 1.15-6.221 1.79.33.95 4.63 2.525-3.987 1.781.33zM38.473 82.145l.239-1.575-2.029-1.022-1.123 1.13-1.329-.67 4.928-4.754 1.513.763-.87 6.797-1.329-.67zm.702-4.198c.02-.091.045-.23.078-.415a75.99 75.99 0 0 1 .225-1.027 5.603 5.603 0 0 1-.312.378 34.514 34.514 0 0 1-.635.74l-1.039 1.04 1.457.734.226-1.45zm2.392-3.266a.815.815 0 0 1-.428.41.963.963 0 0 1-.621.03l-.182.262-.669-.337.2-.616c.196.065.349.089.46.07a.32.32 0 0 0 .254-.185c.048-.096.046-.185-.008-.266a.56.56 0 0 0-.233-.198 1.326 1.326 0 0 0-.524-.163l.333-.66c.086.017.197.05.334.098.14.043.277.099.411.167.365.183.602.394.712.63.11.237.096.49-.039.758zM34.545 72.084c.508.432.866.91 1.075 1.435.213.529.266 1.064.16 1.605-.102.537-.355 1.043-.76 1.519-.402.47-.861.802-1.379.992a2.783 2.783 0 0 1-1.61.097c-.55-.122-1.08-.399-1.588-.831l-1.804-1.537 1.636-1.922-.432-.368.83-.974.432.368 1.636-1.921 1.804 1.537zm-3.317 3.756c.44.374.887.543 1.345.506.457-.036.875-.276 1.253-.72.377-.444.548-.895.511-1.352-.036-.457-.274-.873-.713-1.247l-.556-.473-.783.92 1.043.887-.83.975-1.043-.888-.783.92.556.472z" fill="#FF0069"/></svg>