<svg width="16" height="16" viewBox="0 0 16 16" xmlns="http://www.w3.org/2000/svg"><defs><radialGradient cx="47.572%" cy="48.277%" fx="47.572%" fy="48.277%" r="52.077%" id="e2lzbmhnsa"><stop stop-color="#FFA700" offset="0%"/><stop stop-color="#FCA300" offset="32.27%"/><stop stop-color="#F39600" offset="66.49%"/><stop stop-color="#E58200" offset="100%"/></radialGradient><radialGradient cx="34.105%" cy="36.47%" fx="34.105%" fy="36.47%" r="76.035%" gradientTransform="matrix(1 0 0 .92348 0 .028)" id="5htn5o62of"><stop stop-color="#FFC738" offset="0%"/><stop stop-color="#FFC534" offset="28.37%"/><stop stop-color="#FFBF29" offset="53.91%"/><stop stop-color="#FFB417" offset="78.27%"/><stop stop-color="#FFA700" offset="100%"/></radialGradient><radialGradient cx="50%" cy="50%" fx="50%" fy="50%" r="52.049%" gradientTransform="matrix(1 0 0 .92557 0 .037)" id="xmarceegrg"><stop stop-color="#FFFCF8" offset="0%"/><stop stop-color="#FFFCF8" stop-opacity=".051" offset="94.85%"/><stop stop-color="#FFFCF8" stop-opacity="0" offset="100%"/></radialGradient><radialGradient cx="55.119%" cy="43.589%" fx="55.119%" fy="43.589%" r="78.254%" gradientTransform="matrix(1 0 0 .91652 0 .036)" id="r1ex9vbr1h"><stop stop-color="#FFA700" offset="0%"/><stop stop-color="#FCA300" offset="32.27%"/><stop stop-color="#F39600" offset="66.49%"/><stop stop-color="#E58200" offset="100%"/></radialGradient><radialGradient cx="29.204%" cy="32.583%" fx="29.204%" fy="32.583%" r="87.017%" gradientTransform="matrix(1 0 0 .84937 0 .05)" id="ck5v14rl3i"><stop stop-color="#FFC738" offset="0%"/><stop stop-color="#FFC534" offset="28.37%"/><stop stop-color="#FFBF29" offset="53.91%"/><stop stop-color="#FFB417" offset="78.27%"/><stop stop-color="#FFA700" offset="100%"/></radialGradient><linearGradient x1="50%" y1="40.674%" x2="50%" y2="146.154%" id="m27te5mkgb"><stop stop-color="#E58200" stop-opacity="0" offset="0%"/><stop stop-color="#E27F04" stop-opacity=".039" offset="3.96%"/><stop stop-color="#C15D2F" stop-opacity=".467" offset="46.71%"/><stop stop-color="#AD4949" stop-opacity=".8" offset="80.16%"/><stop stop-color="#A64153" offset="100%"/></linearGradient><linearGradient x1="50%" y1="68.235%" x2="50%" y2="-67.845%" id="fg9kmjhhic"><stop stop-color="#E58200" stop-opacity="0" offset="0%"/><stop stop-color="#E27F04" stop-opacity=".039" offset="3.96%"/><stop stop-color="#C15D2F" stop-opacity=".467" offset="46.71%"/><stop stop-color="#AD4949" stop-opacity=".8" offset="80.16%"/><stop stop-color="#A64153" offset="100%"/></linearGradient><linearGradient x1="50%" y1="53.626%" x2="50%" y2="122.887%" id="1q4vf828zd"><stop stop-color="#E58200" stop-opacity="0" offset="0%"/><stop stop-color="#E27F04" stop-opacity=".039" offset="3.96%"/><stop stop-color="#C15D2F" stop-opacity=".467" offset="46.71%"/><stop stop-color="#AD4949" stop-opacity=".8" offset="80.16%"/><stop stop-color="#A64153" offset="100%"/></linearGradient><linearGradient x1="50%" y1="93.788%" x2="50%" y2="-103.331%" id="v1kxcjcxle"><stop stop-color="#E58200" stop-opacity="0" offset="0%"/><stop stop-color="#E27F04" stop-opacity=".039" offset="3.96%"/><stop stop-color="#C15D2F" stop-opacity=".467" offset="46.71%"/><stop stop-color="#AD4949" stop-opacity=".8" offset="80.16%"/><stop stop-color="#A64153" offset="100%"/></linearGradient></defs><g fill-rule="nonzero" fill="none"><path d="M16 8A8 8 0 1 1 0 8a8 8 0 0 1 16 0z" fill="url(#e2lzbmhnsa)"/><path d="M0 8a7.994 7.994 0 0 0 3.747 6.776h8.506A7.994 7.994 0 0 0 16 8a7.994 7.994 0 0 0-3.747-6.776H3.747A7.994 7.994 0 0 0 0 8z" fill="url(#m27te5mkgb)"/><path d="M0 8a7.97 7.97 0 0 0 2.015 5.308h11.97A7.97 7.97 0 0 0 16 8a7.97 7.97 0 0 0-2.015-5.308H2.015A7.97 7.97 0 0 0 0 8z" fill="url(#fg9kmjhhic)"/><path d="M0 8c0 1.19.26 2.32.727 3.335h14.546A7.968 7.968 0 0 0 16 8c0-1.19-.26-2.32-.727-3.335H.727A7.968 7.968 0 0 0 0 8z" fill="url(#1q4vf828zd)"/><path d="M0 8c0 .69.087 1.358.251 1.996H15.75a8.014 8.014 0 0 0 0-3.992H.25A8.014 8.014 0 0 0 0 8z" fill="url(#v1kxcjcxle)"/><path d="M7.365.025a8 8 0 0 0 0 15.95 8 8 0 0 0 0-15.95z" fill="url(#5htn5o62of)"/><path d="M7.779.757a3.075 3.075 0 0 0-.828 0 7.312 7.312 0 0 0 0 14.486c.274.037.553.037.828 0a7.312 7.312 0 0 0 0-14.486z" fill="url(#xmarceegrg)"/><path d="M12.682 8c0-3.224-2.395-5.837-5.35-5.837-2.954 0-5.35 2.613-5.35 5.837 0 3.224 2.396 5.837 5.35 5.837 2.955 0 5.35-2.613 5.35-5.837z" fill="url(#r1ex9vbr1h)"/><path d="M8.801 2.386a3.44 3.44 0 0 0-2.043 0C4.518 3.083 2.877 5.332 2.877 8c0 2.72 1.705 5.005 4.013 5.653a3.296 3.296 0 0 0 1.779 0c2.308-.648 4.013-2.933 4.013-5.653 0-2.668-1.64-4.917-3.881-5.614z" fill="url(#ck5v14rl3i)"/></g></svg>