<svg width="188" height="24" viewBox="0 0 188 24" fill="none" xmlns="http://www.w3.org/2000/svg"><rect x=".25" y=".25" width="34.5" height="23.5" rx="1.75" fill="#fff" stroke="#F3F3F3" stroke-width=".5"/><path fill-rule="evenodd" clip-rule="evenodd" d="M10.607 8.956c-.255.303-.662.542-1.07.508-.05-.41.15-.845.383-1.114.254-.311.7-.533 1.06-.55.043.427-.123.845-.373 1.156zm.369.589c-.359-.021-.686.108-.95.212-.17.068-.315.125-.425.125-.123 0-.273-.06-.441-.128-.221-.088-.474-.189-.738-.184a1.742 1.742 0 0 0-1.481.905c-.636 1.1-.166 2.73.45 3.625.301.444.662.93 1.137.913.209-.008.36-.072.515-.139.18-.076.365-.155.656-.155.28 0 .459.077.63.151.162.07.318.139.55.134.492-.008.801-.443 1.103-.887.325-.476.468-.94.49-1.011l.002-.008-.012-.006c-.108-.05-.94-.432-.947-1.457-.008-.86.659-1.297.764-1.365a.28.28 0 0 0 .012-.009c-.424-.631-1.086-.7-1.315-.716zm3.407 5.412v-6.65h2.482c1.282 0 2.177.888 2.177 2.184 0 1.297-.912 2.193-2.21 2.193H15.41v2.273h-1.027zm1.027-5.78h1.184c.89 0 1.4.479 1.4 1.319s-.51 1.322-1.404 1.322h-1.18v-2.64zm7.022 4.983c-.271.52-.87.849-1.515.849-.954 0-1.62-.572-1.62-1.434 0-.853.645-1.343 1.837-1.416l1.281-.077v-.366c0-.542-.352-.836-.98-.836-.518 0-.895.268-.972.678h-.925c.03-.862.836-1.489 1.927-1.489 1.175 0 1.939.619 1.939 1.578v3.31h-.95v-.797h-.022zm-1.239.06c-.547 0-.895-.265-.895-.67 0-.418.335-.661.976-.7l1.141-.072v.375c0 .623-.526 1.066-1.222 1.066zm5.363.998c-.411 1.164-.882 1.548-1.884 1.548-.076 0-.33-.009-.39-.026v-.797c.064.008.22.017.301.017.454 0 .709-.192.866-.691l.093-.294-1.74-4.842h1.074l1.21 3.929h.02l1.21-3.929h1.044l-1.804 5.085z" fill="#000"/><rect x="39.25" y=".25" width="34.258" height="23.499" rx="1.75" fill="#fff" stroke="#F3F3F3" stroke-width=".5"/><path d="M54.432 16.46h-2.314l1.447-8.4h2.315l-1.448 8.4zM62.82 8.265a6.03 6.03 0 0 0-2.075-.358c-2.285 0-3.894 1.144-3.904 2.78-.02 1.206 1.152 1.876 2.028 2.279.895.41 1.2.679 1.2 1.045-.01.563-.724.822-1.39.822-.924 0-1.419-.133-2.171-.446l-.305-.135-.324 1.886c.543.232 1.543.438 2.581.447 2.428 0 4.009-1.126 4.027-2.869.01-.956-.609-1.689-1.942-2.287-.81-.385-1.305-.644-1.305-1.037.01-.358.42-.724 1.333-.724a4.152 4.152 0 0 1 1.724.322l.209.089.315-1.814z" fill="#15195A"/><path fill-rule="evenodd" clip-rule="evenodd" d="M66.963 8.06h1.79l1.867 8.4h-2.143s-.21-.965-.276-1.26H65.23l-.486 1.26h-2.428l3.438-7.703c.238-.545.657-.697 1.209-.697zm-.143 3.074-.923 2.35h1.923c-.095-.42-.533-2.43-.533-2.43l-.162-.724c-.068.186-.167.442-.233.615l-.072.189z" fill="#15195A"/><path d="M45.814 8.06c.505.018.915.17 1.048.706l.81 3.86.247 1.162 2.266-5.728h2.448l-3.638 8.391h-2.447l-2.063-7.298a9.791 9.791 0 0 0-2.431-.923l.038-.17h3.722z" fill="#15195A"/><rect x="78.008" y=".25" width="34.258" height="23.499" rx="1.75" fill="#fff" stroke="#F3F3F3" stroke-width=".5"/><path fill-rule="evenodd" clip-rule="evenodd" d="M90.492 18.534v1.772h-.388v-.215a.678.678 0 0 1-.564.26c-.5 0-.892-.39-.892-.93 0-.542.392-.931.892-.931.254 0 .44.1.564.26v-.216h.388zm-.904.319c-.335 0-.54.256-.54.567 0 .312.205.568.54.568.321 0 .538-.245.538-.568 0-.322-.217-.567-.538-.567zm14.012.567c0-.311.205-.567.541-.567.321 0 .537.245.537.567 0 .323-.216.568-.537.568-.336 0-.541-.256-.541-.568zm1.445-1.598v2.484h-.389v-.215a.677.677 0 0 1-.563.26c-.5 0-.893-.39-.893-.93 0-.542.393-.931.893-.931.254 0 .44.1.563.26v-.928h.389zm-9.739 1.012c.25 0 .411.156.452.43h-.926c.042-.255.198-.43.475-.43zm-.88.586c0-.552.365-.93.888-.93.5 0 .844.378.847.93 0 .052-.004.1-.007.148h-1.325c.056.32.284.434.533.434.18 0 .37-.067.52-.185l.19.286a1.089 1.089 0 0 1-.732.248c-.534 0-.914-.367-.914-.93zm5.572 0c0-.311.206-.567.541-.567.321 0 .538.245.538.567 0 .323-.217.568-.538.568-.335 0-.541-.256-.541-.568zm1.444-.886v1.772h-.387v-.215a.68.68 0 0 1-.564.26c-.5 0-.892-.39-.892-.93 0-.542.392-.931.892-.931.254 0 .44.1.564.26v-.216h.387zm-3.635.886c0 .538.377.93.952.93.269 0 .448-.059.642-.21l-.186-.312a.787.787 0 0 1-.467.16c-.31-.004-.538-.227-.538-.568 0-.341.228-.563.538-.567.168 0 .32.055.466.16l.187-.312a.938.938 0 0 0-.642-.212c-.575 0-.952.393-.952.931zm4.531-.67a.528.528 0 0 1 .471-.26c.078 0 .19.014.276.048l-.12.363a.63.63 0 0 0-.242-.044c-.254 0-.381.163-.381.456v.993h-.388v-1.772h.384v.215zm-9.928-.075c-.187-.122-.444-.186-.727-.186-.453 0-.743.216-.743.568 0 .289.216.467.615.523l.183.026c.213.03.314.085.314.185 0 .137-.142.215-.407.215a.955.955 0 0 1-.593-.185l-.183.3c.212.156.481.23.772.23.515 0 .814-.241.814-.579 0-.311-.235-.474-.623-.53l-.183-.026c-.168-.022-.303-.055-.303-.174 0-.13.127-.208.34-.208.228 0 .448.086.556.152l.168-.311zm4.535.074c.1-.155.246-.26.47-.26.079 0 .19.015.276.049l-.12.363a.63.63 0 0 0-.242-.044c-.253 0-.38.163-.38.456v.993h-.388v-1.772h.384v.215zm-2.84-.215h-.635v-.538h-.392v.538h-.362v.352h.362v.809c0 .411.16.656.62.656a.915.915 0 0 0 .485-.137l-.112-.33a.721.721 0 0 1-.343.1c-.194 0-.258-.12-.258-.297v-.8h.635v-.353zm-5.8.66v1.112h-.393v-.986c0-.3-.127-.467-.391-.467-.258 0-.437.163-.437.47v.983h-.392v-.986c0-.3-.13-.467-.388-.467-.265 0-.437.163-.437.47v.983h-.392v-1.772h.389v.219a.591.591 0 0 1 .522-.264c.273 0 .467.12.59.316.164-.249.399-.32.627-.316.433.004.702.286.702.705z" fill="#231F20"/><path d="M98.16 15.523h-5.879V5.027h5.88v10.496z" fill="#FF5F00"/><path d="M92.654 10.275a6.648 6.648 0 0 1 2.567-5.248A6.718 6.718 0 0 0 91.067 3.6c-3.71 0-6.718 2.989-6.718 6.675 0 3.687 3.007 6.675 6.718 6.675 1.567 0 3.01-.533 4.153-1.427a6.648 6.648 0 0 1-2.567-5.248z" fill="#EB001B"/><path d="M106.092 10.275c0 3.687-3.008 6.675-6.719 6.675a6.72 6.72 0 0 1-4.152-1.427 6.647 6.647 0 0 0 0-10.496A6.72 6.72 0 0 1 99.373 3.6c3.711 0 6.719 2.989 6.719 6.675z" fill="#F79E1B"/><rect x="116.749" y=".234" width="32.105" height="23.531" rx="1.64" fill="#fff" stroke="#F3F3F3" stroke-width=".469"/><path fill-rule="evenodd" clip-rule="evenodd" d="M132.194 14.47v-2.706h1.37c.565 0 1.04-.19 1.425-.57.389-.36.606-.878.595-1.418a1.889 1.889 0 0 0-.595-1.41 1.954 1.954 0 0 0-1.425-.58h-2.2v6.685h.83zm0-3.527V8.609h1.391c.31-.009.609.12.821.355.213.214.333.509.333.816 0 .308-.12.603-.333.817a1.08 1.08 0 0 1-.821.346h-1.391zM138.947 10.257c-.354-.34-.838-.509-1.452-.509-.787 0-1.382.299-1.784.896l.731.477c.27-.405.636-.607 1.1-.607.295-.004.581.108.801.313a.993.993 0 0 1 .342.76v.196c-.319-.187-.724-.28-1.217-.28-.577 0-1.038.14-1.384.42-.345.28-.518.656-.518 1.13-.008.43.173.842.491 1.12.328.298.735.447 1.222.447.57 0 1.027-.261 1.371-.784h.036v.635h.793v-2.819c0-.59-.177-1.056-.532-1.395zm-2.25 3.374a.696.696 0 0 1-.275-.56c0-.25.113-.457.34-.627.225-.168.506-.253.843-.253.463 0 .824.107 1.082.32 0 .361-.137.675-.412.943a1.3 1.3 0 0 1-.933.401.993.993 0 0 1-.645-.224zM144.034 9.898l-2.77 6.589h-.856l1.027-2.306-1.821-4.283h.902l1.316 3.285h.018l1.281-3.285h.903z" fill="#5F6368"/><path fill-rule="evenodd" clip-rule="evenodd" d="M128.842 11.18a4.86 4.86 0 0 0-.064-.78h-3.499v1.479h2.004a1.785 1.785 0 0 1-.741 1.167v.96h1.196c.7-.668 1.104-1.657 1.104-2.825z" fill="#4285F4"/><path fill-rule="evenodd" clip-rule="evenodd" d="M125.279 14.933c1.001 0 1.844-.34 2.459-.926l-1.196-.96c-.333.233-.761.366-1.263.366-.967 0-1.789-.675-2.082-1.585h-1.232v.99c.629 1.297 1.912 2.115 3.314 2.115z" fill="#34A853"/><path fill-rule="evenodd" clip-rule="evenodd" d="M123.197 11.828a2.367 2.367 0 0 1 0-1.47V9.37h-1.232a3.959 3.959 0 0 0 0 3.449l1.232-.99z" fill="#FBBC04"/><path fill-rule="evenodd" clip-rule="evenodd" d="M125.279 8.773a1.977 1.977 0 0 1 1.423.576l1.059-1.096a3.498 3.498 0 0 0-2.482-1c-1.402 0-2.685.82-3.314 2.116l1.232.99c.293-.91 1.115-1.586 2.082-1.586z" fill="#EA4335"/><rect x="153.338" y=".25" width="34.259" height="23.5" rx="1.75" fill="#fff" stroke="#F3F3F3" stroke-width=".5"/><path d="M173.65 17.386h-6.203V6.307h6.203v11.079z" fill="#6C6BBD"/><path d="M167.844 11.846a7.018 7.018 0 0 1 2.708-5.54A7.089 7.089 0 0 0 166.17 4.8c-3.915 0-7.089 3.154-7.089 7.046 0 3.89 3.174 7.045 7.089 7.045a7.089 7.089 0 0 0 4.382-1.506 7.018 7.018 0 0 1-2.708-5.54z" fill="#EB001B"/><path d="M182.016 11.846c0 3.89-3.174 7.045-7.089 7.045a7.089 7.089 0 0 1-4.382-1.506 7.018 7.018 0 0 0 0-11.079 7.089 7.089 0 0 1 4.382-1.506c3.915 0 7.089 3.154 7.089 7.046z" fill="#0099DF"/></svg>