<svg width="10" height="10" viewBox="0 0 10 10" fill="none" xmlns="http://www.w3.org/2000/svg"><path d="M10 5A5 5 0 1 1 0 5a5 5 0 0 1 10 0z" fill="url(#7mfi0h2d8a)"/><path d="M0 5c0 1.785.935 3.35 2.342 4.235h5.316A4.996 4.996 0 0 0 10 5c0-1.785-.935-3.35-2.342-4.235H2.342A4.996 4.996 0 0 0 0 5z" fill="url(#qk6elsmeub)"/><path d="M0 5c0 1.273.476 2.435 1.26 3.318h7.48A4.981 4.981 0 0 0 10 5a4.98 4.98 0 0 0-1.26-3.317H1.26A4.98 4.98 0 0 0 0 5z" fill="url(#fbnscvwt6c)"/><path d="M0 5c0 .744.163 1.45.454 2.085h9.092A4.98 4.98 0 0 0 10 5a4.98 4.98 0 0 0-.454-2.084H.454A4.98 4.98 0 0 0 0 5z" fill="url(#incf6unthd)"/><path d="M0 5c0 .43.055.848.157 1.247h9.686a5.009 5.009 0 0 0 0-2.494H.157A5.008 5.008 0 0 0 0 5z" fill="url(#3jol0y1lle)"/><path d="M4.603.016a5 5 0 0 0 0 9.968 5 5 0 0 0 0-9.968z" fill="url(#jq4v1dystf)"/><path d="M4.862.473a1.922 1.922 0 0 0-.518 0 4.57 4.57 0 0 0 0 9.054c.172.023.346.023.518 0a4.57 4.57 0 0 0 0-9.054z" fill="url(#oix216jkyg)"/><path d="M7.926 5c0-2.015-1.497-3.648-3.343-3.648-1.847 0-3.344 1.633-3.344 3.648s1.497 3.648 3.344 3.648c1.846 0 3.343-1.633 3.343-3.648z" fill="url(#4m4dmkl48h)"/><path d="M5.5 1.491a2.15 2.15 0 0 0-1.277 0C2.823 1.927 1.798 3.333 1.798 5c0 1.7 1.066 3.128 2.508 3.533a2.06 2.06 0 0 0 1.112 0C6.86 8.128 7.926 6.7 7.926 5c0-1.667-1.025-3.073-2.425-3.509z" fill="url(#yl3u3qoisi)"/><defs><radialGradient id="7mfi0h2d8a" cx="0" cy="0" r="1" gradientUnits="userSpaceOnUse" gradientTransform="translate(4.757 4.828) scale(5.20769)"><stop stop-color="#FFA700"/><stop offset=".323" stop-color="#FCA300"/><stop offset=".665" stop-color="#F39600"/><stop offset="1" stop-color="#E58200"/></radialGradient><radialGradient id="jq4v1dystf" cx="0" cy="0" r="1" gradientUnits="userSpaceOnUse" gradientTransform="matrix(6.99969 0 0 7.57968 3.14 3.651)"><stop stop-color="#FFC738"/><stop offset=".284" stop-color="#FFC534"/><stop offset=".539" stop-color="#FFBF29"/><stop offset=".783" stop-color="#FFB417"/><stop offset="1" stop-color="#FFA700"/></radialGradient><radialGradient id="oix216jkyg" cx="0" cy="0" r="1" gradientUnits="userSpaceOnUse" gradientTransform="matrix(4.3784 0 0 4.73051 4.603 5)"><stop stop-color="#FFFCF8"/><stop offset=".949" stop-color="#FFFCF8" stop-opacity=".051"/><stop offset="1" stop-color="#FFFCF8" stop-opacity=".01"/></radialGradient><radialGradient id="4m4dmkl48h" cx="0" cy="0" r="1" gradientUnits="userSpaceOnUse" gradientTransform="matrix(5.23289 0 0 5.7095 4.925 4.532)"><stop stop-color="#FFA700"/><stop offset=".323" stop-color="#FCA300"/><stop offset=".665" stop-color="#F39600"/><stop offset="1" stop-color="#E58200"/></radialGradient><radialGradient id="yl3u3qoisi" cx="0" cy="0" r="1" gradientUnits="userSpaceOnUse" gradientTransform="matrix(5.33265 0 0 6.27835 3.588 3.745)"><stop stop-color="#FFC738"/><stop offset=".284" stop-color="#FFC534"/><stop offset=".539" stop-color="#FFBF29"/><stop offset=".783" stop-color="#FFB417"/><stop offset="1" stop-color="#FFA700"/></radialGradient><linearGradient id="qk6elsmeub" x1="-.274" y1="4.21" x2="-.274" y2="13.145" gradientUnits="userSpaceOnUse"><stop stop-color="#E58200" stop-opacity=".01"/><stop offset=".04" stop-color="#E27F04" stop-opacity=".039"/><stop offset=".467" stop-color="#C15D2F" stop-opacity=".467"/><stop offset=".802" stop-color="#AD4949" stop-opacity=".8"/><stop offset="1" stop-color="#A64153"/></linearGradient><linearGradient id="fbnscvwt6c" x1="11.804" y1="6.21" x2="11.804" y2="-2.819" gradientUnits="userSpaceOnUse"><stop stop-color="#E58200" stop-opacity=".01"/><stop offset=".04" stop-color="#E27F04" stop-opacity=".039"/><stop offset=".467" stop-color="#C15D2F" stop-opacity=".467"/><stop offset=".802" stop-color="#AD4949" stop-opacity=".8"/><stop offset="1" stop-color="#A64153"/></linearGradient><linearGradient id="incf6unthd" x1="1.537" y1="5.151" x2="1.537" y2="8.039" gradientUnits="userSpaceOnUse"><stop stop-color="#E58200" stop-opacity=".01"/><stop offset=".04" stop-color="#E27F04" stop-opacity=".039"/><stop offset=".467" stop-color="#C15D2F" stop-opacity=".467"/><stop offset=".802" stop-color="#AD4949" stop-opacity=".8"/><stop offset="1" stop-color="#A64153"/></linearGradient><linearGradient id="3jol0y1lle" x1="14.856" y1="6.092" x2="14.856" y2="1.175" gradientUnits="userSpaceOnUse"><stop stop-color="#E58200" stop-opacity=".01"/><stop offset=".04" stop-color="#E27F04" stop-opacity=".039"/><stop offset=".467" stop-color="#C15D2F" stop-opacity=".467"/><stop offset=".802" stop-color="#AD4949" stop-opacity=".8"/><stop offset="1" stop-color="#A64153"/></linearGradient></defs></svg>